HIERARCHY
ROOT Hips
{
	OFFSET -0.001795 -0.223333 0.028219
	CHANNELS 6 Xposition Yposition Zposition Zrotation Yrotation Xrotation 
	JOINT LeftUpLeg
	{
		OFFSET 0.069520 -0.091406 -0.006815
		CHANNELS 3 Zrotation Yrotation Xrotation
		JOINT LeftLeg
		{
			OFFSET 0.034277 -0.375199 -0.004496
			CHANNELS 3 Zrotation Yrotation Xrotation
			JOINT LeftFoot
			{
				OFFSET -0.013596 -0.397961 -0.043693
				CHANNELS 3 Zrotation Yrotation Xrotation
				JOINT LeftToe
				{
					OFFSET 0.026358 -0.055791 0.119288
					CHANNELS 3 Zrotation Yrotation Xrotation
					End Site
					{
						OFFSET 0.000000 0.000000 0.000000
					}
				}
			}
		}
	}
	JOINT RightUpLeg
	{
		OFFSET -0.067670 -0.090522 -0.004320
		CHANNELS 3 Zrotation Yrotation Xrotation
		JOINT RightLeg
		{
			OFFSET -0.038290 -0.382569 -0.008850
			CHANNELS 3 Zrotation Yrotation Xrotation
			JOINT RightFoot
			{
				OFFSET 0.015774 -0.398415 -0.042312
				CHANNELS 3 Zrotation Yrotation Xrotation
				JOINT RightToe
				{
					OFFSET -0.025372 -0.048144 0.123348
					CHANNELS 3 Zrotation Yrotation Xrotation
					End Site
					{
						OFFSET 0.000000 0.000000 0.000000
					}
				}
			}
		}
	}
	JOINT Spine
	{
		OFFSET -0.002533 0.108963 -0.026696
		CHANNELS 3 Zrotation Yrotation Xrotation
		JOINT Spine1
		{
			OFFSET 0.005487 0.135180 0.001092
			CHANNELS 3 Zrotation Yrotation Xrotation
			JOINT Spine2
			{
				OFFSET 0.001457 0.052922 0.025425
				CHANNELS 3 Zrotation Yrotation Xrotation
				JOINT Neck
				{
					OFFSET -0.002778 0.213870 -0.042857
					CHANNELS 3 Zrotation Yrotation Xrotation
					JOINT Head
					{
						OFFSET 0.005152 0.064970 0.051349
						CHANNELS 3 Zrotation Yrotation Xrotation
						End Site
						{
							OFFSET 0.000000 0.000000 0.000000
						}
					}
				}
				JOINT LeftShoulder
				{
					OFFSET 0.078845 0.121749 -0.034090
					CHANNELS 3 Zrotation Yrotation Xrotation
					JOINT LeftArm
					{
						OFFSET 0.090977 0.030469 -0.008868
						CHANNELS 3 Zrotation Yrotation Xrotation
						JOINT LeftForeArm
						{
							OFFSET 0.259612 -0.012772 -0.027456
							CHANNELS 3 Zrotation Yrotation Xrotation
							JOINT LeftHand
							{
								OFFSET 0.249234 0.008986 -0.001171
								CHANNELS 3 Zrotation Yrotation Xrotation
								End Site
								{
									OFFSET 0.000000 0.000000 0.000000
								}
							}
						}
					}
				}
				JOINT RightShoulder
				{
					OFFSET -0.081759 0.118833 -0.038615
					CHANNELS 3 Zrotation Yrotation Xrotation
					JOINT RightArm
					{
						OFFSET -0.096012 0.032551 -0.009143
						CHANNELS 3 Zrotation Yrotation Xrotation
						JOINT RightForeArm
						{
							OFFSET -0.253742 -0.013329 -0.021401
							CHANNELS 3 Zrotation Yrotation Xrotation
							JOINT RightHand
							{
								OFFSET -0.255298 0.007772 -0.005559
								CHANNELS 3 Zrotation Yrotation Xrotation
								End Site
								{
									OFFSET 0.000000 0.000000 0.000000
								}
							}
						}
					}
				}
			}
		}
	}
}
MOTION
Frames: 7
Frame Time: 0.050000
-0.126986 0.913623 1.806229 -176.835597 -5.453708 171.629865 21.350268 28.068598 24.286563 52.803818 27.853930 42.948240 -63.578226 30.275412 42.548462 0.000000 0.000000 0.000000 7.946232 1.747267 -14.337207 14.710577 17.755186 22.908794 -157.868273 64.834514 -22.033895 0.000000 0.000000 0.000000 5.016310 5.875276 19.543532 38.390413 33.448628 11.731861 -38.587196 -49.284099 5.546446 97.380302 49.260205 57.435234 0.000000 0.000000 0.000000 10.580552 6.888285 -168.166229 82.378352 9.788674 8.020739 2.952829 42.870485 -4.866281 0.000000 0.000000 0.000000 25.302726 -25.239162 59.296092 21.488360 50.044543 16.849464 -11.268085 2.838596 -1.583574 0.000000 0.000000 0.000000 
-0.118866 0.926619 1.728979 -177.279937 -2.960191 171.512081 11.790486 18.673460 9.157954 95.782307 28.084741 80.097578 -71.049027 30.464191 52.022917 0.000000 0.000000 0.000000 10.124631 0.742214 -6.068361 8.515931 13.872930 18.275174 -176.481950 55.962160 -35.743808 0.000000 0.000000 0.000000 3.682922 5.916516 19.129308 35.131224 32.526754 10.464741 -32.991929 -43.885303 4.145445 103.094548 48.997559 58.909769 0.000000 0.000000 0.000000 9.592956 7.119931 -172.163222 82.288106 4.645924 2.387331 8.266704 39.269078 -2.828820 0.000000 0.000000 0.000000 21.954780 -24.719164 68.949320 8.499982 57.231308 13.738482 -13.162958 2.770694 -1.563966 0.000000 0.000000 0.000000 
-0.112848 0.938243 1.654058 -177.994657 -0.767445 170.887376 7.366977 14.974526 -3.098784 112.506388 19.348511 93.259513 -80.116307 32.639083 57.280466 0.000000 0.000000 0.000000 11.969595 3.138831 2.616514 2.950129 9.167151 12.885974 -166.269858 51.375059 -29.956496 0.000000 0.000000 0.000000 3.104191 6.847360 20.055815 31.906635 31.667491 8.961885 -30.124695 -38.600515 3.277929 105.479904 48.755039 58.917986 0.000000 0.000000 0.000000 8.831633 12.543307 171.548449 81.457035 -11.550394 -10.223684 21.231628 30.950464 1.289501 0.000000 0.000000 0.000000 17.784756 -25.951529 80.489208 -11.905906 61.460015 3.923300 -18.823755 1.375443 -1.747032 0.000000 0.000000 0.000000 
-0.107710 0.943637 1.579761 -179.278502 3.116106 170.399339 6.832530 -7.205432 -10.948867 -88.380342 -33.029648 59.675657 -12.555736 -41.398624 148.307479 0.000000 0.000000 0.000000 9.706389 -7.132601 10.506887 -6.775884 -11.562511 9.986300 118.813965 -3.998470 -31.110451 0.000000 0.000000 0.000000 -3.113013 -6.753700 19.106000 -14.980822 -26.715478 6.353642 15.574255 41.276229 -1.503186 -62.120716 -53.314779 35.836165 0.000000 0.000000 0.000000 1.905491 20.510482 136.908056 68.501173 -41.073708 -8.337293 27.325349 21.390558 3.452036 0.000000 0.000000 0.000000 4.844996 -26.735303 117.082287 -67.396968 49.392389 -36.897060 -24.693428 -6.936895 -0.130042 0.000000 0.000000 0.000000 
-0.102668 0.939431 1.505693 -179.120250 6.143044 169.686950 7.548744 -8.143048 -18.432045 -60.056631 -32.517130 42.472952 -41.931691 -54.669818 179.661568 0.000000 0.000000 0.000000 6.018854 -15.075166 18.948781 -6.244168 -6.905822 5.117157 120.149502 -8.044905 -26.340740 0.000000 0.000000 0.000000 -2.776472 -6.963594 19.616879 -13.922274 -23.402589 3.801187 14.247497 42.402308 -0.635916 -56.297403 -52.875489 31.997227 0.000000 0.000000 0.000000 3.690285 20.630584 141.186332 68.706245 -39.397845 -8.389326 27.732004 22.302162 3.673780 0.000000 0.000000 0.000000 3.538862 -26.682534 114.580644 -71.021145 49.152656 -36.129598 -29.519433 -10.304378 1.167900 0.000000 0.000000 0.000000 
-0.097649 0.926880 1.431188 -178.213858 7.842305 171.005875 7.439863 -9.213171 -22.466017 -21.643880 -18.451283 17.271052 -117.659195 -87.307683 -112.427009 0.000000 0.000000 0.000000 2.996853 -20.053277 23.639844 -6.767709 -6.024935 4.691276 127.925123 -10.299222 -22.385294 0.000000 0.000000 0.000000 -2.260927 -6.729135 19.143805 -12.180034 -20.871432 2.090588 13.279148 40.780941 -1.846220 -49.582654 -51.923999 25.448751 0.000000 0.000000 0.000000 4.515076 22.941685 143.673413 67.460387 -39.587717 -9.685849 25.645413 20.332222 2.687398 0.000000 0.000000 0.000000 0.950415 -24.955438 112.456077 -73.443489 51.520016 -35.596369 -31.494343 -13.306525 2.433297 0.000000 0.000000 0.000000 
-0.093916 0.912412 1.353364 -177.776811 9.460849 171.304981 7.519965 -9.466391 -23.242540 -11.281838 -13.173696 3.519860 174.533454 -80.260026 -46.774946 0.000000 0.000000 0.000000 -2.167862 -26.145046 29.999317 -9.552488 -4.628195 5.052218 132.450548 -15.169002 -18.110912 0.000000 0.000000 0.000000 -2.508974 -5.327728 17.556591 -11.876130 -20.630780 1.928685 14.592876 40.626062 0.217005 -53.174523 -52.175034 25.529503 0.000000 0.000000 0.000000 0.159467 25.575709 134.569328 59.991140 -44.310497 -9.747592 26.530391 15.338339 2.322031 0.000000 0.000000 0.000000 1.312483 -24.775153 113.337582 -75.456084 48.438188 -34.680764 -34.430363 -15.030094 3.214366 0.000000 0.000000 0.000000 
